<?xml version="1.0" encoding="UTF-8"?>
<!DOCTYPE svg PUBLIC "-//W3C//DTD SVG 1.1//EN" "http://www.w3.org/Graphics/SVG/1.1/DTD/svg11.dtd">
<!-- Creator: CorelDRAW X7 -->
<svg xmlns="http://www.w3.org/2000/svg" xml:space="preserve" width="130.13mm" height="130.963mm" version="1.1" style="shape-rendering:geometricPrecision; text-rendering:geometricPrecision; image-rendering:optimizeQuality; fill-rule:evenodd; clip-rule:evenodd"
viewBox="0 0 13013 13096"
 xmlns:xlink="http://www.w3.org/1999/xlink">
 <defs>
  <style type="text/css">
   <![CDATA[
    .fil4 {fill:black}
    .fil3 {fill:#00488D}
    .fil1 {fill:#21110F}
    .fil0 {fill:darkorange}
    .fil2 {fill:#FFD000}
   ]]>
  </style>
 </defs>
 <g id="Capa_x0020_1">
  <metadata id="CorelCorpID_0Corel-Layer"/>
  <g id="_811040224">
   <path class="fil0" d="M7298 1204c322,91 629,219 915,379l947 -756 1446 1446 -757 947c161,286 289,592 380,914l1204 135 0 2045 -1204 135c-91,322 -219,628 -380,914l757 947 -1446 1446 -947 -756c-286,160 -593,288 -915,379l-134 1204 -2045 0 -135 -1204c-322,-91 -629,-219 -915,-379l-947 756 -1446 -1446 757 -947c-161,-286 -289,-592 -380,-914l-1204 -135 0 -2045 1205 -135c90,-322 219,-628 379,-914l-757 -947 1446 -1446 947 756c286,-160 593,-288 915,-379l135 -1204 2045 0 134 1204z"/>
   <polygon class="fil1" points="1503,3709 1503,6598 0,6598 0,13096 4610,13096 4610,12278 4778,12278 4778,11877 4343,11877 4343,12278 4510,12278 4510,12996 100,12996 100,6699 1604,6699 1604,3809 5195,3809 5195,4577 7099,4577 7099,3759 7768,3759 7768,3057 8419,3057 8419,4226 8803,4226 8803,5162 7868,5162 7868,5930 7016,5930 7016,5045 5496,5045 5496,5797 4727,5797 4727,6715 3875,6715 3875,8286 5746,8286 5746,7534 8586,7534 8586,10223 9321,10223 9321,11860 9154,11860 9154,12261 9588,12261 9588,11860 9438,11860 9438,10123 8686,10123 8686,7434 5746,7434 5746,6715 4844,6715 4844,5914 5596,5914 5596,5145 6916,5145 6916,6030 7868,6030 7868,6816 9756,6816 9756,6030 12913,6030 12913,10658 12412,10658 12412,11844 12245,11844 12245,12261 12696,12261 12696,11844 12512,11844 12512,10774 13013,10774 13013,5930 9756,5930 9756,5162 8904,5162 8904,4126 8536,4126 8536,2957 7667,2957 7667,3658 7099,3658 7099,2940 6130,2940 6133,2375 7978,2367 7978,1619 6437,1613 6444,1164 7009,1158 7009,27 6923,38 6923,1074 6349,1076 6348,1706 7891,1706 7889,2286 6045,2286 6045,2940 5195,2940 5195,3709 "/>
   <polygon class="fil2" points="5293,4477 6996,4477 6996,3057 5293,3057 "/>
   <polygon class="fil2" points="7977,6715 9631,6715 9631,5262 7977,5262 "/>
   <polygon class="fil2" points="3968,8185 5622,8185 5622,6816 3968,6816 "/>
   <g>
    <polygon class="fil3" points="5412,12261 6031,12261 6031,10225 6053,10225 7383,12261 8051,12261 8051,9355 7435,9355 7435,11388 7409,11388 6097,9355 5412,9355 "/>
    <path id="1" class="fil4" d="M5502 12171l439 0 0 -1946 0 -90 90 1 22 0 49 0 26 40 1304 1995 529 0 0 -2726 -436 0 0 1943 0 89 -89 1 -27 0 -49 1 -27 -42 -1285 -1992 -546 0 0 2726zm-90 90l619 0 0 -2036 22 0 1330 2036 668 0 0 -2906 -616 0 0 2033 -26 0 -1312 -2033 -685 0 0 2906z"/>
   </g>
   <g>
    <polygon class="fil3" points="9738,9902 10724,9902 10724,12241 11392,12241 11392,9902 12361,9902 12361,9334 9738,9334 "/>
    <path id="1" class="fil4" d="M9828 9812l896 0 90 0 0 90 0 2249 488 0 0 -2249 0 -90 90 0 879 0 0 -388 -2443 0 0 388zm-90 90l986 0 0 2339 668 0 0 -2339 969 0 0 -568 -2623 0 0 568z"/>
   </g>
   <polygon class="fil2" points="4443,12172 4677,12172 4677,11971 4443,11971 "/>
   <polygon class="fil2" points="9254,12163 9488,12163 9488,11962 9254,11962 "/>
   <polygon class="fil2" points="12361,12163 12578,12163 12578,11962 12361,11962 "/>
   <g>
    <path class="fil3" d="M701 12278l752 0 217 -602 1203 0 217 602 752 0 -1170 -2923 -802 0 -1169 2923zm1565 -2484l558 1427 -1136 -2 540 -1425 38 0z"/>
    <path id="1" class="fil4" d="M834 12188l556 0 196 -542 21 -60 63 0 1203 0 63 0 21 60 196 542 556 0 -1097 -2743 -681 0 -1097 2743zm-133 90l752 0 217 -602 1203 0 217 602 752 0 -1170 -2923 -802 0 -1169 2923zm1565 -2484l558 1427 -1136 -2 540 -1425 38 0zm83 -33l559 1428 48 122 -132 0 -1136 -2 -130 0 46 -122 540 -1425 22 -58 62 0 37 0 62 -1 22 58z"/>
   </g>
  </g>
 </g>
</svg>
