<?xml version="1.0" encoding="utf-8"?>
<!-- Generator: Adobe Illustrator 21.1.0, SVG Export Plug-In . SVG Version: 6.00 Build 0)  -->
<svg version="1.1" id="Layer_1" xmlns="http://www.w3.org/2000/svg" xmlns:xlink="http://www.w3.org/1999/xlink" x="0px" y="0px"
	 viewBox="0 0 48 48" style="enable-background:new 0 0 48 48;" xml:space="preserve">
<style type="text/css">
	.st0{fill:none;stroke:#FFFFFF;stroke-width:1.2596;stroke-linecap:round;stroke-linejoin:round;stroke-miterlimit:10;}
	.st1{fill:none;}
</style>
<g>
	<g>
		<g>
			<path class="st0" d="M10.4,21.8L10.4,21.8L10.4,21.8l0.1-0.1l9.4-8.4L7.1,12c-2.1-0.2-4.3,0.8-5.5,2.8C0,17.5,1,20.9,3.7,22.4
				C6,23.7,8.6,23.3,10.4,21.8z"/>
			<path class="st0" d="M35.8,35.7L35.8,35.7L35.8,35.7C35.8,35.6,35.8,35.6,35.8,35.7l2.3-12.5l7.8,10.1c1.3,1.7,1.6,4.1,0.5,6.1
				c-1.5,2.7-4.9,3.7-7.7,2.2C36.5,40.4,35.4,38,35.8,35.7z"/>
			<polygon class="st0" points="21,17.8 19.2,21 31.8,27.9 33.6,24.7 			"/>
			<path class="st0" d="M31,14.8L31,14.8c-2.5-1.4-5.4-1.1-7.6,0.4l11.3,6.2C34.8,18.7,33.4,16.1,31,14.8z"/>
			<polygon class="st0" points="15.8,27.2 28.3,34.1 30.1,30.9 17.5,24 			"/>
			<path class="st0" d="M18.4,37.2L18.4,37.2c2.5,1.4,5.4,1.1,7.6-0.4l-11.3-6.2C14.5,33.2,15.9,35.8,18.4,37.2z"/>
			<path class="st0" d="M31.4,9.4c0.7-1.2,0.2-2.7-1-3.4S27.6,5.8,27,7c-0.7,1.2-0.2,2.7,1,3.4C29.2,11.1,30.7,10.6,31.4,9.4z"/>
			<path class="st0" d="M39.8,14c0.7-1.2,0.2-2.7-1-3.4s-2.8-0.2-3.4,1c-0.7,1.2-0.2,2.7,1,3.4C37.5,15.7,39.1,15.2,39.8,14z"/>
		</g>
	</g>
	<rect class="st1" width="48" height="48"/>
</g>
</svg>
